<?xml version="1.0" encoding="us-ascii" standalone="no"?><svg xmlns="http://www.w3.org/2000/svg" xmlns:xlink="http://www.w3.org/1999/xlink" contentStyleType="text/css" height="824px" preserveAspectRatio="none" style="width:1038px;height:824px;" version="1.1" viewBox="0 0 1038 824" width="1038px" zoomAndPan="magnify"><defs/><g><line style="stroke:#61AFEF;stroke-width:0.5;stroke-dasharray:5.0,5.0;" x1="37" x2="37" y1="81.702" y2="743.046"/><line style="stroke:#61AFEF;stroke-width:0.5;stroke-dasharray:5.0,5.0;" x1="168.5" x2="168.5" y1="81.702" y2="743.046"/><line style="stroke:#61AFEF;stroke-width:0.5;stroke-dasharray:5.0,5.0;" x1="424" x2="424" y1="81.702" y2="743.046"/><line style="stroke:#61AFEF;stroke-width:0.5;stroke-dasharray:5.0,5.0;" x1="559" x2="559" y1="81.702" y2="743.046"/><line style="stroke:#61AFEF;stroke-width:0.5;stroke-dasharray:5.0,5.0;" x1="713" x2="713" y1="81.702" y2="743.046"/><line style="stroke:#61AFEF;stroke-width:0.5;stroke-dasharray:5.0,5.0;" x1="837" x2="837" y1="81.702" y2="743.046"/><line style="stroke:#61AFEF;stroke-width:0.5;stroke-dasharray:5.0,5.0;" x1="971" x2="971" y1="81.702" y2="743.046"/><text fill="#ABB2BF" font-family="Helvetica Neue" font-size="14" lengthAdjust="spacing" textLength="59" x="5" y="78.72">End User</text><ellipse cx="37.5" cy="13.5" fill="#424856" rx="8" ry="8" style="stroke:#61AFEF;stroke-width:0.5;"/><path d="M37.5,21.5 L37.5,48.5 M24.5,29.5 L50.5,29.5 M37.5,48.5 L24.5,63.5 M37.5,48.5 L50.5,63.5 " fill="none" style="stroke:#61AFEF;stroke-width:0.5;"/><text fill="#ABB2BF" font-family="Helvetica Neue" font-size="14" lengthAdjust="spacing" textLength="59" x="5" y="755.766">End User</text><ellipse cx="37.5" cy="767.248" fill="#424856" rx="8" ry="8" style="stroke:#61AFEF;stroke-width:0.5;"/><path d="M37.5,775.248 L37.5,802.248 M24.5,783.248 L50.5,783.248 M37.5,802.248 L24.5,817.248 M37.5,802.248 L50.5,817.248 " fill="none" style="stroke:#61AFEF;stroke-width:0.5;"/><rect fill="#424856" height="30.702" rx="2.5" ry="2.5" style="stroke:#61AFEF;stroke-width:0.5;" width="68" x="134.5" y="50"/><text fill="#ABB2BF" font-family="Helvetica Neue" font-size="14" lengthAdjust="spacing" textLength="54" x="141.5" y="70.72">Browser</text><rect fill="#424856" height="30.702" rx="2.5" ry="2.5" style="stroke:#61AFEF;stroke-width:0.5;" width="68" x="134.5" y="742.046"/><text fill="#ABB2BF" font-family="Helvetica Neue" font-size="14" lengthAdjust="spacing" textLength="54" x="141.5" y="762.766">Browser</text><rect fill="#424856" height="47.404" rx="2.5" ry="2.5" style="stroke:#61AFEF;stroke-width:0.5;" width="153" x="348" y="33.298"/><text fill="#ABB2BF" font-family="Helvetica Neue" font-size="14" lengthAdjust="spacing" textLength="139" x="355" y="54.018">Backend for Frontend</text><text fill="#ABB2BF" font-family="Helvetica Neue" font-size="14" lengthAdjust="spacing" textLength="34" x="407.5" y="70.72">(BFF)</text><rect fill="#424856" height="47.404" rx="2.5" ry="2.5" style="stroke:#61AFEF;stroke-width:0.5;" width="153" x="348" y="742.046"/><text fill="#ABB2BF" font-family="Helvetica Neue" font-size="14" lengthAdjust="spacing" textLength="139" x="355" y="762.766">Backend for Frontend</text><text fill="#ABB2BF" font-family="Helvetica Neue" font-size="14" lengthAdjust="spacing" textLength="34" x="407.5" y="779.468">(BFF)</text><rect fill="#424856" height="30.702" rx="2.5" ry="2.5" style="stroke:#61AFEF;stroke-width:0.5;" width="96" x="511" y="50"/><text fill="#ABB2BF" font-family="Helvetica Neue" font-size="14" lengthAdjust="spacing" textLength="82" x="518" y="70.72">User Service</text><rect fill="#424856" height="30.702" rx="2.5" ry="2.5" style="stroke:#61AFEF;stroke-width:0.5;" width="96" x="511" y="742.046"/><text fill="#ABB2BF" font-family="Helvetica Neue" font-size="14" lengthAdjust="spacing" textLength="82" x="518" y="762.766">User Service</text><rect fill="#424856" height="30.702" rx="2.5" ry="2.5" style="stroke:#61AFEF;stroke-width:0.5;" width="103" x="662" y="50"/><text fill="#ABB2BF" font-family="Helvetica Neue" font-size="14" lengthAdjust="spacing" textLength="89" x="669" y="70.72">Order Service</text><rect fill="#424856" height="30.702" rx="2.5" ry="2.5" style="stroke:#61AFEF;stroke-width:0.5;" width="103" x="662" y="742.046"/><text fill="#ABB2BF" font-family="Helvetica Neue" font-size="14" lengthAdjust="spacing" textLength="89" x="669" y="762.766">Order Service</text><rect fill="#424856" height="30.702" rx="2.5" ry="2.5" style="stroke:#61AFEF;stroke-width:0.5;" width="125" x="775" y="50"/><text fill="#ABB2BF" font-family="Helvetica Neue" font-size="14" lengthAdjust="spacing" textLength="111" x="782" y="70.72">Inventory Service</text><rect fill="#424856" height="30.702" rx="2.5" ry="2.5" style="stroke:#61AFEF;stroke-width:0.5;" width="125" x="775" y="742.046"/><text fill="#ABB2BF" font-family="Helvetica Neue" font-size="14" lengthAdjust="spacing" textLength="111" x="782" y="762.766">Inventory Service</text><rect fill="#424856" height="30.702" rx="2.5" ry="2.5" style="stroke:#61AFEF;stroke-width:0.5;" width="122" x="910" y="50"/><text fill="#ABB2BF" font-family="Helvetica Neue" font-size="14" lengthAdjust="spacing" textLength="108" x="917" y="70.72">Payment Service</text><rect fill="#424856" height="30.702" rx="2.5" ry="2.5" style="stroke:#61AFEF;stroke-width:0.5;" width="122" x="910" y="742.046"/><text fill="#ABB2BF" font-family="Helvetica Neue" font-size="14" lengthAdjust="spacing" textLength="108" x="917" y="762.766">Payment Service</text><polygon fill="#61AFEF" points="156.5,109.211,166.5,113.211,156.5,117.211,160.5,113.211" style="stroke:#61AFEF;stroke-width:1.0;"/><line style="stroke:#61AFEF;stroke-width:1.0;" x1="37.5" x2="162.5" y1="113.211" y2="113.211"/><text fill="#ABB2BF" font-family="Helvetica Neue" font-size="13" lengthAdjust="spacing" textLength="107" x="44.5" y="108.442">Creates new order</text><polygon fill="#61AFEF" points="412.5,185.611,422.5,189.611,412.5,193.611,416.5,189.611" style="stroke:#61AFEF;stroke-width:1.0;"/><line style="stroke:#61AFEF;stroke-width:1.0;" x1="168.5" x2="418.5" y1="189.611" y2="189.611"/><text fill="#ABB2BF" font-family="Helvetica Neue" font-size="13" font-weight="bold" lengthAdjust="spacing" textLength="84" x="175.5" y="138.263">POST /orders</text><text fill="#ABB2BF" font-family="Helvetica Neue" font-size="13" lengthAdjust="spacing" textLength="179" x="175.5" y="153.824">Content-Type: application/json</text><text fill="#ABB2BF" font-family="Helvetica Neue" font-size="13" lengthAdjust="spacing" textLength="4" x="175.5" y="169.333">&#160;</text><text fill="#ABB2BF" font-family="Helvetica Neue" font-size="13" lengthAdjust="spacing" textLength="204" x="175.5" y="184.842">{"product": "laptop", "quantity": 1}</text><path d="M429,202.611 L429,243.611 L677,243.611 L677,212.611 L667,202.611 L429,202.611 " fill="#8B0000" style="stroke:#282C34;stroke-width:0.5;"/><path d="M667,202.611 L667,212.611 L677,212.611 L667,202.611 " fill="#8B0000" style="stroke:#282C34;stroke-width:0.5;"/><text fill="#D3D3D3" font-family="Helvetica Neue" font-size="13" lengthAdjust="spacing" textLength="227" x="435" y="220.351">BFF immediately returns 202 Accepted</text><text fill="#D3D3D3" font-family="Helvetica Neue" font-size="13" lengthAdjust="spacing" textLength="151" x="435" y="235.86">with a status monitor URL</text><polygon fill="#61AFEF" points="179.5,328.538,169.5,332.538,179.5,336.538,175.5,332.538" style="stroke:#61AFEF;stroke-width:1.0;"/><line style="stroke:#61AFEF;stroke-width:1.0;" x1="173.5" x2="423.5" y1="332.538" y2="332.538"/><text fill="#ABB2BF" font-family="Helvetica Neue" font-size="13" font-weight="bold" lengthAdjust="spacing" textLength="145" x="185.5" y="265.681">HTTP/1.1 202 Accepted</text><text fill="#ABB2BF" font-family="Helvetica Neue" font-size="13" lengthAdjust="spacing" textLength="179" x="185.5" y="281.242">Content-Type: application/json</text><text fill="#ABB2BF" font-family="Helvetica Neue" font-size="13" lengthAdjust="spacing" textLength="4" x="185.5" y="296.751">&#160;</text><text fill="#ABB2BF" font-family="Helvetica Neue" font-size="13" lengthAdjust="spacing" textLength="140" x="185.5" y="312.26">{"status": "processing",</text><text fill="#ABB2BF" font-family="Helvetica Neue" font-size="13" lengthAdjust="spacing" textLength="228" x="189.5" y="327.769">"monitor_url": "/orders/status/abc123"}</text><path d="M11,345.538 L11,386.538 L163,386.538 L163,355.538 L153,345.538 L11,345.538 " fill="#8B0000" style="stroke:#282C34;stroke-width:0.5;"/><path d="M153,345.538 L153,355.538 L163,355.538 L153,345.538 " fill="#8B0000" style="stroke:#282C34;stroke-width:0.5;"/><text fill="#D3D3D3" font-family="Helvetica Neue" font-size="13" lengthAdjust="spacing" textLength="131" x="17" y="363.278">User can check status</text><text fill="#D3D3D3" font-family="Helvetica Neue" font-size="13" lengthAdjust="spacing" textLength="129" x="17" y="378.787">using the monitor URL</text><polygon fill="#61AFEF" points="825.5,440.447,835.5,444.447,825.5,448.447,829.5,444.447" style="stroke:#61AFEF;stroke-width:1.0;"/><line style="stroke:#61AFEF;stroke-width:1.0;" x1="424.5" x2="831.5" y1="444.447" y2="444.447"/><text fill="#ABB2BF" font-family="Helvetica Neue" font-size="13" font-weight="bold" lengthAdjust="spacing" textLength="111" x="431.5" y="408.608">Async Processing</text><text fill="#ABB2BF" font-family="Helvetica Neue" font-size="13" lengthAdjust="spacing" textLength="141" x="431.5" y="424.169">POST /inventory/reserve</text><text fill="#ABB2BF" font-family="Helvetica Neue" font-size="13" lengthAdjust="spacing" textLength="204" x="431.5" y="439.678">{"product": "laptop", "quantity": 1}</text><path d="M429,457.447 L429,498.447 L650,498.447 L650,467.447 L640,457.447 L429,457.447 " fill="#8B0000" style="stroke:#282C34;stroke-width:0.5;"/><path d="M640,457.447 L640,467.447 L650,467.447 L640,457.447 " fill="#8B0000" style="stroke:#282C34;stroke-width:0.5;"/><text fill="#D3D3D3" font-family="Helvetica Neue" font-size="13" lengthAdjust="spacing" textLength="158" x="435" y="475.187">BFF processes the request</text><text fill="#D3D3D3" font-family="Helvetica Neue" font-size="13" lengthAdjust="spacing" textLength="200" x="435" y="490.696">asynchronously in the background</text><polygon fill="#61AFEF" points="435.5,520.974,425.5,524.974,435.5,528.974,431.5,524.974" style="stroke:#61AFEF;stroke-width:1.0;"/><line style="stroke:#61AFEF;stroke-width:1.0;" x1="429.5" x2="836.5" y1="524.974" y2="524.974"/><text fill="#ABB2BF" font-family="Helvetica Neue" font-size="13" lengthAdjust="spacing" textLength="261" x="441.5" y="520.205">{"reserved": true, "reservation_id": "inv456"}</text><polygon fill="#61AFEF" points="959,565.992,969,569.992,959,573.992,963,569.992" style="stroke:#61AFEF;stroke-width:1.0;"/><line style="stroke:#61AFEF;stroke-width:1.0;" x1="424.5" x2="965" y1="569.992" y2="569.992"/><text fill="#ABB2BF" font-family="Helvetica Neue" font-size="13" lengthAdjust="spacing" textLength="155" x="431.5" y="549.714">POST /payments/authorize</text><text fill="#ABB2BF" font-family="Helvetica Neue" font-size="13" lengthAdjust="spacing" textLength="241" x="431.5" y="565.223">{"amount": 999.99, "order_id": "abc123"}</text><polygon fill="#61AFEF" points="435.5,595.501,425.5,599.501,435.5,603.501,431.5,599.501" style="stroke:#61AFEF;stroke-width:1.0;"/><line style="stroke:#61AFEF;stroke-width:1.0;" x1="429.5" x2="970" y1="599.501" y2="599.501"/><text fill="#ABB2BF" font-family="Helvetica Neue" font-size="13" lengthAdjust="spacing" textLength="262" x="441.5" y="594.732">{"authorized": true, "payment_id": "pay789"}</text><polygon fill="#61AFEF" points="701.5,640.519,711.5,644.519,701.5,648.519,705.5,644.519" style="stroke:#61AFEF;stroke-width:1.0;"/><line style="stroke:#61AFEF;stroke-width:1.0;" x1="424.5" x2="707.5" y1="644.519" y2="644.519"/><text fill="#ABB2BF" font-family="Helvetica Neue" font-size="13" lengthAdjust="spacing" textLength="118" x="431.5" y="624.241">POST /orders/create</text><text fill="#ABB2BF" font-family="Helvetica Neue" font-size="13" lengthAdjust="spacing" textLength="265" x="431.5" y="639.75">{"order_id": "abc123", "status": "confirmed"}</text><polygon fill="#61AFEF" points="435.5,670.028,425.5,674.028,435.5,678.028,431.5,674.028" style="stroke:#61AFEF;stroke-width:1.0;"/><line style="stroke:#61AFEF;stroke-width:1.0;" x1="429.5" x2="712.5" y1="674.028" y2="674.028"/><text fill="#ABB2BF" font-family="Helvetica Neue" font-size="13" lengthAdjust="spacing" textLength="225" x="441.5" y="669.259">{"created": true, "order_id": "abc123"}</text><path d="M298,687.028 L298,728.028 L551,728.028 L551,697.028 L541,687.028 L298,687.028 " fill="#8B0000" style="stroke:#282C34;stroke-width:0.5;"/><path d="M541,687.028 L541,697.028 L551,697.028 L541,687.028 " fill="#8B0000" style="stroke:#282C34;stroke-width:0.5;"/><text fill="#D3D3D3" font-family="Helvetica Neue" font-size="13" lengthAdjust="spacing" textLength="159" x="304" y="704.768">Order processing complete</text><text fill="#D3D3D3" font-family="Helvetica Neue" font-size="13" lengthAdjust="spacing" textLength="232" x="304" y="720.277">Status monitor now shows "completed"</text><!--SRC=[NO-z3i8m48FtFaKHSvAs8oCWM103Rt1DhcsKDeak5n1lJyIFX3hQ_YJR6-lrd0tM4tDCEwK87dAqFEK-9oGTFADdgSEY8Z1P9tG2fu97OO2SY3DupiiiUC85rRsLZMpLMyXO_AfAple814lTWtOZXUpD8So1QYRmgKIbu8-w1iRzYjmUIzSDpGexbNLVu6B7YS-4pwhQ_2vrJIT0QuoCHlJ3y1dq0W00]--></g></svg>