<?xml version="1.0" encoding="us-ascii" standalone="no"?><svg xmlns="http://www.w3.org/2000/svg" xmlns:xlink="http://www.w3.org/1999/xlink" contentStyleType="text/css" height="391px" preserveAspectRatio="none" style="width:325px;height:391px;" version="1.1" viewBox="0 0 325 391" width="325px" zoomAndPan="magnify"><defs/><g><line style="stroke:#181818;stroke-width:0.5;stroke-dasharray:5.0,5.0;" x1="33" x2="33" y1="52.9766" y2="340.0137"/><line style="stroke:#181818;stroke-width:0.5;stroke-dasharray:5.0,5.0;" x1="274" x2="274" y1="52.9766" y2="340.0137"/><rect fill="#E2E2F0" height="46.9766" rx="2.5" ry="2.5" style="stroke:#181818;stroke-width:0.5;" width="56" x="5" y="5"/><text fill="#000000" font-family="sans-serif" font-size="14" lengthAdjust="spacing" textLength="40" x="13" y="25.5352">Client</text><text fill="#000000" font-family="sans-serif" font-size="14" lengthAdjust="spacing" textLength="38" x="16" y="42.0234">&#128187;&#128241;</text><rect fill="#E2E2F0" height="46.9766" rx="2.5" ry="2.5" style="stroke:#181818;stroke-width:0.5;" width="56" x="5" y="339.0137"/><text fill="#000000" font-family="sans-serif" font-size="14" lengthAdjust="spacing" textLength="40" x="13" y="359.5488">Client</text><text fill="#000000" font-family="sans-serif" font-size="14" lengthAdjust="spacing" textLength="38" x="16" y="376.0371">&#128187;&#128241;</text><rect fill="#E2E2F0" height="30.4883" rx="2.5" ry="2.5" style="stroke:#181818;stroke-width:0.5;" width="90" x="229" y="21.4883"/><text fill="#000000" font-family="sans-serif" font-size="14" lengthAdjust="spacing" textLength="76" x="236" y="42.0234">Web Server</text><rect fill="#E2E2F0" height="30.4883" rx="2.5" ry="2.5" style="stroke:#181818;stroke-width:0.5;" width="90" x="229" y="339.0137"/><text fill="#000000" font-family="sans-serif" font-size="14" lengthAdjust="spacing" textLength="76" x="236" y="359.5488">Web Server</text><polygon fill="#181818" points="262,110.9082,272,114.9082,262,118.9082,266,114.9082" style="stroke:#181818;stroke-width:1.0;"/><line style="stroke:#181818;stroke-width:1.0;" x1="33" x2="268" y1="114.9082" y2="114.9082"/><text fill="#000000" font-family="sans-serif" font-size="13" font-weight="bold" lengthAdjust="spacing" textLength="95" x="40" y="79.5449">HTTP Request</text><text fill="#000000" font-family="sans-serif" font-size="13" lengthAdjust="spacing" textLength="217" x="40" y="94.8555">GET /teenager/1/chores HTTP/1.1</text><text fill="#000000" font-family="sans-serif" font-size="13" lengthAdjust="spacing" textLength="118" x="40" y="110.166">Host: hanno.codes</text><path d="M38,127.9082 L38,167.9082 L253,167.9082 L253,137.9082 L243,127.9082 L38,127.9082 " fill="#FEFFDD" style="stroke:#181818;stroke-width:0.5;"/><path d="M243,127.9082 L243,137.9082 L253,137.9082 L243,127.9082 " fill="#FEFFDD" style="stroke:#181818;stroke-width:0.5;"/><text fill="#000000" font-family="sans-serif" font-size="13" lengthAdjust="spacing" textLength="194" x="44" y="145.4766">Client initiates communication</text><text fill="#000000" font-family="sans-serif" font-size="13" lengthAdjust="spacing" textLength="176" x="44" y="160.7871">by sending an HTTP request</text><polygon fill="#181818" points="44,252.082,34,256.082,44,260.082,40,256.082" style="stroke:#181818;stroke-width:1.0;"/><line style="stroke:#181818;stroke-width:1.0;" x1="38" x2="273" y1="256.082" y2="256.082"/><text fill="#000000" font-family="sans-serif" font-size="13" font-weight="bold" lengthAdjust="spacing" textLength="105" x="50" y="190.0977">HTTP Response</text><text fill="#000000" font-family="sans-serif" font-size="13" lengthAdjust="spacing" textLength="110" x="50" y="205.4082">HTTP/1.1 200 OK</text><text fill="#000000" font-family="sans-serif" font-size="13" lengthAdjust="spacing" textLength="200" x="50" y="220.7188">Content-Type: application/json</text><text fill="#000000" font-family="sans-serif" font-size="13" lengthAdjust="spacing" textLength="4" x="50" y="236.0293">&#160;</text><text fill="#000000" font-family="sans-serif" font-size="13" lengthAdjust="spacing" textLength="192" x="50" y="251.3398">{"chores": ["dishes", "laundry"]}</text><path d="M68,269.082 L68,324.082 L269,324.082 L269,279.082 L259,269.082 L68,269.082 " fill="#FEFFDD" style="stroke:#181818;stroke-width:0.5;"/><path d="M259,269.082 L259,279.082 L269,279.082 L259,269.082 " fill="#FEFFDD" style="stroke:#181818;stroke-width:0.5;"/><text fill="#000000" font-family="sans-serif" font-size="13" lengthAdjust="spacing" textLength="180" x="74" y="286.6504">Server processes the request</text><text fill="#000000" font-family="sans-serif" font-size="13" lengthAdjust="spacing" textLength="170" x="74" y="301.9609">and sends back a response</text><text fill="#000000" font-family="sans-serif" font-size="13" lengthAdjust="spacing" textLength="162" x="74" y="317.2715">with status code and data</text><!--SRC=[3ShH4O0W203GVwUm0Mo99a6qyaJm4Axry_kzrHjFK1Wn0_P7nRbSGgBH57XjgcmX78sHlDIzLiFqcirqatpdz47X1m00]--></g></svg>