<?xml version="1.0" encoding="us-ascii" standalone="no"?><svg xmlns="http://www.w3.org/2000/svg" xmlns:xlink="http://www.w3.org/1999/xlink" contentStyleType="text/css" height="817px" preserveAspectRatio="none" style="width:1085px;height:817px;" version="1.1" viewBox="0 0 1085 817" width="1085px" zoomAndPan="magnify"><defs/><g><line style="stroke:#181818;stroke-width:0.5;stroke-dasharray:5.0,5.0;" x1="38" x2="38" y1="81.4883" y2="736.1836"/><line style="stroke:#181818;stroke-width:0.5;stroke-dasharray:5.0,5.0;" x1="175" x2="175" y1="81.4883" y2="736.1836"/><line style="stroke:#181818;stroke-width:0.5;stroke-dasharray:5.0,5.0;" x1="455.5" x2="455.5" y1="81.4883" y2="736.1836"/><line style="stroke:#181818;stroke-width:0.5;stroke-dasharray:5.0,5.0;" x1="594.5" x2="594.5" y1="81.4883" y2="736.1836"/><line style="stroke:#181818;stroke-width:0.5;stroke-dasharray:5.0,5.0;" x1="752.5" x2="752.5" y1="81.4883" y2="736.1836"/><line style="stroke:#181818;stroke-width:0.5;stroke-dasharray:5.0,5.0;" x1="880.5" x2="880.5" y1="81.4883" y2="736.1836"/><line style="stroke:#181818;stroke-width:0.5;stroke-dasharray:5.0,5.0;" x1="1017.5" x2="1017.5" y1="81.4883" y2="736.1836"/><text fill="#000000" font-family="sans-serif" font-size="14" lengthAdjust="spacing" textLength="61" x="5" y="78.5352">End User</text><ellipse cx="38.5" cy="13.5" fill="#E2E2F0" rx="8" ry="8" style="stroke:#181818;stroke-width:0.5;"/><path d="M38.5,21.5 L38.5,48.5 M25.5,29.5 L51.5,29.5 M38.5,48.5 L25.5,63.5 M38.5,48.5 L51.5,63.5 " fill="none" style="stroke:#181818;stroke-width:0.5;"/><text fill="#000000" font-family="sans-serif" font-size="14" lengthAdjust="spacing" textLength="61" x="5" y="748.7188">End User</text><ellipse cx="38.5" cy="760.1719" fill="#E2E2F0" rx="8" ry="8" style="stroke:#181818;stroke-width:0.5;"/><path d="M38.5,768.1719 L38.5,795.1719 M25.5,776.1719 L51.5,776.1719 M38.5,795.1719 L25.5,810.1719 M38.5,795.1719 L51.5,810.1719 " fill="none" style="stroke:#181818;stroke-width:0.5;"/><rect fill="#E2E2F0" height="30.4883" rx="2.5" ry="2.5" style="stroke:#181818;stroke-width:0.5;" width="69" x="141" y="50"/><text fill="#000000" font-family="sans-serif" font-size="14" lengthAdjust="spacing" textLength="55" x="148" y="70.5352">Browser</text><rect fill="#E2E2F0" height="30.4883" rx="2.5" ry="2.5" style="stroke:#181818;stroke-width:0.5;" width="69" x="141" y="735.1836"/><text fill="#000000" font-family="sans-serif" font-size="14" lengthAdjust="spacing" textLength="55" x="148" y="755.7188">Browser</text><rect fill="#E2E2F0" height="46.9766" rx="2.5" ry="2.5" style="stroke:#181818;stroke-width:0.5;" width="162" x="374.5" y="33.5117"/><text fill="#000000" font-family="sans-serif" font-size="14" lengthAdjust="spacing" textLength="148" x="381.5" y="54.0469">Backend for Frontend</text><text fill="#000000" font-family="sans-serif" font-size="14" lengthAdjust="spacing" textLength="34" x="438.5" y="70.5352">(BFF)</text><rect fill="#E2E2F0" height="46.9766" rx="2.5" ry="2.5" style="stroke:#181818;stroke-width:0.5;" width="162" x="374.5" y="735.1836"/><text fill="#000000" font-family="sans-serif" font-size="14" lengthAdjust="spacing" textLength="148" x="381.5" y="755.7188">Backend for Frontend</text><text fill="#000000" font-family="sans-serif" font-size="14" lengthAdjust="spacing" textLength="34" x="438.5" y="772.207">(BFF)</text><rect fill="#E2E2F0" height="30.4883" rx="2.5" ry="2.5" style="stroke:#181818;stroke-width:0.5;" width="97" x="546.5" y="50"/><text fill="#000000" font-family="sans-serif" font-size="14" lengthAdjust="spacing" textLength="83" x="553.5" y="70.5352">User Service</text><rect fill="#E2E2F0" height="30.4883" rx="2.5" ry="2.5" style="stroke:#181818;stroke-width:0.5;" width="97" x="546.5" y="735.1836"/><text fill="#000000" font-family="sans-serif" font-size="14" lengthAdjust="spacing" textLength="83" x="553.5" y="755.7188">User Service</text><rect fill="#E2E2F0" height="30.4883" rx="2.5" ry="2.5" style="stroke:#181818;stroke-width:0.5;" width="106" x="699.5" y="50"/><text fill="#000000" font-family="sans-serif" font-size="14" lengthAdjust="spacing" textLength="92" x="706.5" y="70.5352">Order Service</text><rect fill="#E2E2F0" height="30.4883" rx="2.5" ry="2.5" style="stroke:#181818;stroke-width:0.5;" width="106" x="699.5" y="735.1836"/><text fill="#000000" font-family="sans-serif" font-size="14" lengthAdjust="spacing" textLength="92" x="706.5" y="755.7188">Order Service</text><rect fill="#E2E2F0" height="30.4883" rx="2.5" ry="2.5" style="stroke:#181818;stroke-width:0.5;" width="130" x="815.5" y="50"/><text fill="#000000" font-family="sans-serif" font-size="14" lengthAdjust="spacing" textLength="116" x="822.5" y="70.5352">Inventory Service</text><rect fill="#E2E2F0" height="30.4883" rx="2.5" ry="2.5" style="stroke:#181818;stroke-width:0.5;" width="130" x="815.5" y="735.1836"/><text fill="#000000" font-family="sans-serif" font-size="14" lengthAdjust="spacing" textLength="116" x="822.5" y="755.7188">Inventory Service</text><rect fill="#E2E2F0" height="30.4883" rx="2.5" ry="2.5" style="stroke:#181818;stroke-width:0.5;" width="124" x="955.5" y="50"/><text fill="#000000" font-family="sans-serif" font-size="14" lengthAdjust="spacing" textLength="110" x="962.5" y="70.5352">Payment Service</text><rect fill="#E2E2F0" height="30.4883" rx="2.5" ry="2.5" style="stroke:#181818;stroke-width:0.5;" width="124" x="955.5" y="735.1836"/><text fill="#000000" font-family="sans-serif" font-size="14" lengthAdjust="spacing" textLength="110" x="962.5" y="755.7188">Payment Service</text><polygon fill="#181818" points="163.5,108.7988,173.5,112.7988,163.5,116.7988,167.5,112.7988" style="stroke:#181818;stroke-width:1.0;"/><line style="stroke:#181818;stroke-width:1.0;" x1="38.5" x2="169.5" y1="112.7988" y2="112.7988"/><text fill="#000000" font-family="sans-serif" font-size="13" lengthAdjust="spacing" textLength="113" x="45.5" y="108.0566">Creates new order</text><polygon fill="#181818" points="443.5,184.041,453.5,188.041,443.5,192.041,447.5,188.041" style="stroke:#181818;stroke-width:1.0;"/><line style="stroke:#181818;stroke-width:1.0;" x1="175.5" x2="449.5" y1="188.041" y2="188.041"/><text fill="#000000" font-family="sans-serif" font-size="13" font-weight="bold" lengthAdjust="spacing" textLength="90" x="182.5" y="137.3672">POST /orders</text><text fill="#000000" font-family="sans-serif" font-size="13" lengthAdjust="spacing" textLength="200" x="182.5" y="152.6777">Content-Type: application/json</text><text fill="#000000" font-family="sans-serif" font-size="13" lengthAdjust="spacing" textLength="4" x="182.5" y="167.9883">&#160;</text><text fill="#000000" font-family="sans-serif" font-size="13" lengthAdjust="spacing" textLength="211" x="182.5" y="183.2988">{"product": "laptop", "quantity": 1}</text><path d="M460,201.041 L460,241.041 L722,241.041 L722,211.041 L712,201.041 L460,201.041 " fill="#FEFFDD" style="stroke:#181818;stroke-width:0.5;"/><path d="M712,201.041 L712,211.041 L722,211.041 L712,201.041 " fill="#FEFFDD" style="stroke:#181818;stroke-width:0.5;"/><text fill="#000000" font-family="sans-serif" font-size="13" lengthAdjust="spacing" textLength="241" x="466" y="218.6094">BFF immediately returns 202 Accepted</text><text fill="#000000" font-family="sans-serif" font-size="13" lengthAdjust="spacing" textLength="163" x="466" y="233.9199">with a status monitor URL</text><polygon fill="#181818" points="186.5,325.2148,176.5,329.2148,186.5,333.2148,182.5,329.2148" style="stroke:#181818;stroke-width:1.0;"/><line style="stroke:#181818;stroke-width:1.0;" x1="180.5" x2="454.5" y1="329.2148" y2="329.2148"/><text fill="#000000" font-family="sans-serif" font-size="13" font-weight="bold" lengthAdjust="spacing" textLength="162" x="192.5" y="263.2305">HTTP/1.1 202 Accepted</text><text fill="#000000" font-family="sans-serif" font-size="13" lengthAdjust="spacing" textLength="200" x="192.5" y="278.541">Content-Type: application/json</text><text fill="#000000" font-family="sans-serif" font-size="13" lengthAdjust="spacing" textLength="4" x="192.5" y="293.8516">&#160;</text><text fill="#000000" font-family="sans-serif" font-size="13" lengthAdjust="spacing" textLength="144" x="192.5" y="309.1621">{"status": "processing",</text><text fill="#000000" font-family="sans-serif" font-size="13" lengthAdjust="spacing" textLength="252" x="196.5" y="324.4727">"monitor_url": "/orders/status/abc123"}</text><path d="M8,342.2148 L8,382.2148 L170,382.2148 L170,352.2148 L160,342.2148 L8,342.2148 " fill="#FEFFDD" style="stroke:#181818;stroke-width:0.5;"/><path d="M160,342.2148 L160,352.2148 L170,352.2148 L160,342.2148 " fill="#FEFFDD" style="stroke:#181818;stroke-width:0.5;"/><text fill="#000000" font-family="sans-serif" font-size="13" lengthAdjust="spacing" textLength="138" x="14" y="359.7832">User can check status</text><text fill="#000000" font-family="sans-serif" font-size="13" lengthAdjust="spacing" textLength="141" x="14" y="375.0938">using the monitor URL</text><polygon fill="#181818" points="868.5,435.7676,878.5,439.7676,868.5,443.7676,872.5,439.7676" style="stroke:#181818;stroke-width:1.0;"/><line style="stroke:#181818;stroke-width:1.0;" x1="455.5" x2="874.5" y1="439.7676" y2="439.7676"/><text fill="#000000" font-family="sans-serif" font-size="13" font-weight="bold" lengthAdjust="spacing" textLength="118" x="462.5" y="404.4043">Async Processing</text><text fill="#000000" font-family="sans-serif" font-size="13" lengthAdjust="spacing" textLength="154" x="462.5" y="419.7148">POST /inventory/reserve</text><text fill="#000000" font-family="sans-serif" font-size="13" lengthAdjust="spacing" textLength="211" x="462.5" y="435.0254">{"product": "laptop", "quantity": 1}</text><path d="M460,452.7676 L460,492.7676 L699,492.7676 L699,462.7676 L689,452.7676 L460,452.7676 " fill="#FEFFDD" style="stroke:#181818;stroke-width:0.5;"/><path d="M689,452.7676 L689,462.7676 L699,462.7676 L689,452.7676 " fill="#FEFFDD" style="stroke:#181818;stroke-width:0.5;"/><text fill="#000000" font-family="sans-serif" font-size="13" lengthAdjust="spacing" textLength="163" x="466" y="470.3359">BFF processes the request</text><text fill="#000000" font-family="sans-serif" font-size="13" lengthAdjust="spacing" textLength="218" x="466" y="485.6465">asynchronously in the background</text><polygon fill="#181818" points="466.5,515.6992,456.5,519.6992,466.5,523.6992,462.5,519.6992" style="stroke:#181818;stroke-width:1.0;"/><line style="stroke:#181818;stroke-width:1.0;" x1="460.5" x2="879.5" y1="519.6992" y2="519.6992"/><text fill="#000000" font-family="sans-serif" font-size="13" lengthAdjust="spacing" textLength="272" x="472.5" y="514.957">{"reserved": true, "reservation_id": "inv456"}</text><polygon fill="#181818" points="1005.5,560.3203,1015.5,564.3203,1005.5,568.3203,1009.5,564.3203" style="stroke:#181818;stroke-width:1.0;"/><line style="stroke:#181818;stroke-width:1.0;" x1="455.5" x2="1011.5" y1="564.3203" y2="564.3203"/><text fill="#000000" font-family="sans-serif" font-size="13" lengthAdjust="spacing" textLength="170" x="462.5" y="544.2676">POST /payments/authorize</text><text fill="#000000" font-family="sans-serif" font-size="13" lengthAdjust="spacing" textLength="252" x="462.5" y="559.5781">{"amount": 999.99, "order_id": "abc123"}</text><polygon fill="#181818" points="466.5,589.6309,456.5,593.6309,466.5,597.6309,462.5,593.6309" style="stroke:#181818;stroke-width:1.0;"/><line style="stroke:#181818;stroke-width:1.0;" x1="460.5" x2="1016.5" y1="593.6309" y2="593.6309"/><text fill="#000000" font-family="sans-serif" font-size="13" lengthAdjust="spacing" textLength="273" x="472.5" y="588.8887">{"authorized": true, "payment_id": "pay789"}</text><polygon fill="#181818" points="740.5,634.252,750.5,638.252,740.5,642.252,744.5,638.252" style="stroke:#181818;stroke-width:1.0;"/><line style="stroke:#181818;stroke-width:1.0;" x1="455.5" x2="746.5" y1="638.252" y2="638.252"/><text fill="#000000" font-family="sans-serif" font-size="13" lengthAdjust="spacing" textLength="128" x="462.5" y="618.1992">POST /orders/create</text><text fill="#000000" font-family="sans-serif" font-size="13" lengthAdjust="spacing" textLength="273" x="462.5" y="633.5098">{"order_id": "abc123", "status": "confirmed"}</text><polygon fill="#181818" points="466.5,663.5625,456.5,667.5625,466.5,671.5625,462.5,667.5625" style="stroke:#181818;stroke-width:1.0;"/><line style="stroke:#181818;stroke-width:1.0;" x1="460.5" x2="751.5" y1="667.5625" y2="667.5625"/><text fill="#000000" font-family="sans-serif" font-size="13" lengthAdjust="spacing" textLength="231" x="472.5" y="662.8203">{"created": true, "order_id": "abc123"}</text><path d="M321,680.5625 L321,720.5625 L589,720.5625 L589,690.5625 L579,680.5625 L321,680.5625 " fill="#FEFFDD" style="stroke:#181818;stroke-width:0.5;"/><path d="M579,680.5625 L579,690.5625 L589,690.5625 L579,680.5625 " fill="#FEFFDD" style="stroke:#181818;stroke-width:0.5;"/><text fill="#000000" font-family="sans-serif" font-size="13" lengthAdjust="spacing" textLength="170" x="327" y="698.1309">Order processing complete</text><text fill="#000000" font-family="sans-serif" font-size="13" lengthAdjust="spacing" textLength="247" x="327" y="713.4414">Status monitor now shows "completed"</text><!--SRC=[3Sd13S0W2030lrFG0MmQLt0IH6oCYWHr__Q-jreLHSC12QczDe_aEFiqs8Qo_cBPpbrLg9_C49xWaOXrS_Qfb5lFwEu3]--></g></svg>